<svg width="64" height="27" viewBox="0 0 64 27" fill="none" xmlns="http://www.w3.org/2000/svg">
<path d="M10.8037 22.3205C10.8037 24.7112 12.6821 26.5896 15.0727 26.5896C17.3776 26.5896 19.3418 24.7112 19.3418 22.3205C19.3418 19.9299 17.4634 18.0515 15.0727 18.0515C12.6821 18.0515 10.8037 19.9299 10.8037 22.3205ZM12.5191 22.3205C12.5191 20.8735 13.6258 19.7669 15.0727 19.7669C16.4342 19.7669 17.6263 20.8736 17.6263 22.3205C17.6263 23.7675 16.5197 24.8741 15.0727 24.8741C13.6257 24.8741 12.5191 23.7675 12.5191 22.3205Z" fill="#0A306B" stroke="#0A306B" stroke-width="0.01"/>
<path d="M42.3579 22.3205C42.3579 24.7112 44.2363 26.5896 46.6269 26.5896C48.9324 26.5896 50.896 24.7112 50.896 22.3205C50.896 19.9299 49.0176 18.0515 46.6269 18.0515C44.2363 18.0515 42.3579 19.9299 42.3579 22.3205ZM44.0733 22.3205C44.0733 20.8735 45.18 19.7669 46.6269 19.7669C48.0739 19.7669 49.1805 20.8735 49.1805 22.3205C49.1805 23.7675 48.0739 24.8741 46.6269 24.8741C45.1799 24.8741 44.0733 23.7675 44.0733 22.3205Z" fill="#0A306B" stroke="#0A306B" stroke-width="0.01"/>
<path d="M4.07132 12.5181H18.4841C18.913 12.5181 19.3421 12.1748 19.3421 11.6601V5.69052C19.3421 5.17525 18.913 4.83246 18.4841 4.83246H4.07132C3.55605 4.83246 3.21326 5.26156 3.21326 5.69052V11.6601C3.21326 12.1754 3.64236 12.5181 4.07132 12.5181ZM17.6265 10.8021H4.92944V6.54797H17.6265V10.8021Z" fill="#772D29" stroke="#772D29" stroke-width="0.01"/>
<path d="M40.3212 11.6609L40.3212 11.6609V11.6601V5.69052C40.3212 5.17525 39.8921 4.83246 39.4632 4.83246H29.9118C29.3965 4.83246 29.0537 5.26156 29.0537 5.69052V11.6601C29.0537 12.1754 29.4828 12.5181 29.9118 12.5181H39.378C39.635 12.5181 39.8495 12.4324 40.0105 12.2821C40.1714 12.1319 40.2785 11.9176 40.3212 11.6609ZM38.5207 10.8021H30.6848V6.54797H38.5207V10.8021Z" fill="#772D29" stroke="#0A306B" stroke-width="0.01"/>
<path d="M41.6805 12.5181H50.3793C50.8083 12.5181 51.2368 12.1748 51.2374 11.6601V5.69052C51.2374 5.17525 50.8083 4.83246 50.3793 4.83246H41.6805C41.1652 4.83246 40.8224 5.26156 40.8224 5.69052V11.6601C40.8224 12.1754 41.2515 12.5181 41.6805 12.5181ZM49.5212 10.8021H42.4528V6.54797H49.5212V10.8021Z" fill="#0A306B" stroke="#0A306B" stroke-width="0.01"/>
<path d="M63.005 20.5296V20.5293V6.28731C63.005 3.38512 60.6149 0.995 57.7127 0.995H6.2879C3.38572 0.995 0.995595 3.38512 0.995595 6.28731L0.995 20.5298C0.995 22.0681 2.27695 23.2641 3.72932 23.2641H9.78461C10.0418 23.2641 10.2564 23.1783 10.4068 23.028C10.5571 22.8776 10.6427 22.663 10.6427 22.406C10.6427 21.8908 10.2136 21.548 9.78461 21.548L3.72993 21.5474C3.13602 21.5474 2.71173 21.1237 2.71173 20.5292V6.28717C2.71173 4.32861 4.32999 2.71034 6.28856 2.71034H57.6281C59.5866 2.71034 61.2049 4.32861 61.2049 6.28717V20.4441C61.2049 21.038 60.7812 21.4623 60.1867 21.4623H51.9994C51.7421 21.4623 51.5275 21.548 51.3772 21.6984C51.2269 21.8488 51.1413 22.0634 51.1413 22.3203C51.1413 22.8356 51.5704 23.1784 51.9994 23.1784H60.1862H60.1867V23.1755L60.1874 23.1784L60.1875 23.1785C61.725 23.1778 62.9204 21.9821 63.005 20.5296Z" fill="#0A306B" stroke="#0A306B" stroke-width="0.01"/>
<path d="M21.7247 20.7053H26.671C27.697 20.7053 28.4666 19.9357 28.4666 18.9097L28.4672 6.71413C28.4672 5.77337 27.6971 4.91791 26.671 4.91791H21.7247C20.7839 4.91791 19.9285 5.68802 19.9285 6.71413V18.9091C19.9285 19.8499 20.6986 20.7053 21.7247 20.7053ZM21.559 6.71415C21.559 6.67294 21.5796 6.63147 21.611 6.6002C21.6423 6.56892 21.6838 6.54842 21.7247 6.54842H26.6704C26.7116 6.54842 26.7531 6.56907 26.7844 6.60041C26.8156 6.63176 26.8362 6.67324 26.8362 6.71415L26.8368 18.9097C26.8368 18.9509 26.8161 18.9924 26.7848 19.0237C26.7534 19.0549 26.7119 19.0754 26.671 19.0754H21.7247C21.6835 19.0754 21.642 19.0548 21.6107 19.0235C21.5795 18.9921 21.559 18.9506 21.559 18.9097V6.71415Z" fill="#0A306B" stroke="#0A306B" stroke-width="0.01"/>
<path d="M53.62 20.7053H58.5663C59.5929 20.7053 60.3626 19.9357 60.3626 18.9097L60.3632 6.71413C60.3632 5.77337 59.593 4.91791 58.5669 4.91791H53.6206C52.594 4.91791 51.8244 5.68818 51.8244 6.71413L51.8238 18.9091C51.8238 19.8499 52.5939 20.7053 53.62 20.7053ZM53.4543 6.71415C53.4543 6.67294 53.4749 6.63147 53.5063 6.6002C53.5376 6.56892 53.5791 6.54842 53.62 6.54842H58.5663C58.6075 6.54842 58.649 6.56907 58.6803 6.60041C58.7116 6.63176 58.7321 6.67324 58.7321 6.71415L58.7327 18.9097C58.7327 18.9509 58.712 18.9924 58.6807 19.0237C58.6493 19.0549 58.6078 19.0754 58.5669 19.0754H53.6206C53.5794 19.0754 53.5379 19.0548 53.5067 19.0235C53.4754 18.9921 53.4549 18.9506 53.4549 18.9097L53.4543 6.71415Z" fill="#0A306B" stroke="#0A306B" stroke-width="0.01"/>
<path d="M20.5308 23.0078H41.1689C41.5979 23.0078 42.0264 22.6644 42.027 22.1498C42.027 21.6345 41.5979 21.2917 41.1689 21.2917H20.5308C20.2736 21.2917 20.059 21.3775 19.9087 21.5278C19.7584 21.6782 19.6727 21.8928 19.6727 22.1498C19.6727 22.665 20.1018 23.0078 20.5308 23.0078Z" fill="#0A306B" stroke="#0A306B" stroke-width="0.01"/>
</svg>
