<svg width="39" height="34" viewBox="0 0 39 34" fill="none" xmlns="http://www.w3.org/2000/svg">
<path fill-rule="evenodd" clip-rule="evenodd" d="M27.5361 2.43029C27.7797 1.78213 27.4386 1.06404 26.7743 0.826378C26.1099 0.58872 25.3738 0.921497 25.1302 1.56966L24.7164 2.67068C24.466 3.33718 23.8157 3.78028 23.088 3.78028C21.0545 3.78028 19.2994 5.17097 18.8824 7.11272L18.2913 9.86518C18.1913 9.84871 18.0916 9.83018 17.9922 9.80959C17.2778 9.66164 16.5687 9.36112 14.8171 8.60162L13.91 8.2083C12.7062 7.68634 11.4036 7.41664 10.0863 7.41664C4.35689 7.41664 -0.044188 12.3674 0.76607 17.9008L1.16052 20.5946L3.64832 29.0896C4.36951 31.5522 6.67663 33.25 9.30181 33.25C11.3025 33.25 13.1658 32.2575 14.2477 30.6156L14.8872 29.645C17.0458 26.3693 21.9539 26.3693 24.1124 29.645L24.5037 30.2388C25.7403 32.1155 27.8702 33.25 30.1571 33.25C33.5017 33.25 36.3374 30.8506 36.8104 27.6203L38.2336 17.9008C39.0439 12.3674 34.6428 7.41664 28.9134 7.41664C27.5961 7.41664 26.2935 7.68634 25.0897 8.2083L24.1826 8.60162C22.431 9.36112 21.7219 9.66164 21.0075 9.80959C20.9775 9.8158 20.9475 9.82182 20.9175 9.82765L21.3905 7.62539C21.5588 6.84162 22.2672 6.28028 23.088 6.28028C24.8907 6.28028 26.5017 5.18252 27.1223 3.53131L27.5361 2.43029ZM29.7499 15.3333C29.7499 16.2538 28.9851 17 28.0416 17C27.0981 17 26.3333 16.2538 26.3333 15.3333C26.3333 14.4128 27.0981 13.6666 28.0416 13.6666C28.9851 13.6666 29.7499 14.4128 29.7499 15.3333ZM26.3333 18.6666C26.3333 19.5871 25.5684 20.3333 24.6249 20.3333C23.6814 20.3333 22.9166 19.5871 22.9166 18.6666C22.9166 17.7462 23.6814 17 24.6249 17C25.5684 17 26.3333 17.7462 26.3333 18.6666ZM31.4583 20.3333C32.4017 20.3333 33.1666 19.5871 33.1666 18.6666C33.1666 17.7462 32.4017 17 31.4583 17C30.5148 17 29.7499 17.7462 29.7499 18.6666C29.7499 19.5871 30.5148 20.3333 31.4583 20.3333ZM29.7499 22C29.7499 22.9205 28.9851 23.6666 28.0416 23.6666C27.0981 23.6666 26.3333 22.9205 26.3333 22C26.3333 21.0795 27.0981 20.3333 28.0416 20.3333C28.9851 20.3333 29.7499 21.0795 29.7499 22ZM12.2394 15.3333C12.2394 14.643 11.6658 14.0833 10.9582 14.0833C10.2505 14.0833 9.6769 14.643 9.6769 15.3333V17.4166H7.54149C6.83387 17.4166 6.26024 17.9763 6.26024 18.6666C6.26024 19.357 6.83387 19.9166 7.54149 19.9166H9.6769V22C9.6769 22.6903 10.2505 23.25 10.9582 23.25C11.6658 23.25 12.2394 22.6903 12.2394 22V19.9166H14.3748C15.0824 19.9166 15.6561 19.357 15.6561 18.6666C15.6561 17.9763 15.0824 17.4166 14.3748 17.4166H12.2394V15.3333Z" fill="#0A306B"/>
</svg>
