<svg width="57" height="35" viewBox="0 0 57 35" fill="none" xmlns="http://www.w3.org/2000/svg">
<mask id="path-1-outside-1_11_600" maskUnits="userSpaceOnUse" x="0" y="0" width="57" height="35" fill="black">
<rect fill="white" width="57" height="35"/>
<path d="M47.3225 16.4132C46.7938 16.4158 46.2668 16.4673 45.7475 16.5669L41.7903 3.31676C42.3173 3.00511 42.9291 2.87375 43.5357 2.94114C44.1424 3.00852 44.7113 3.27168 45.1591 3.69195C45.7158 4.21224 46.0446 4.93641 46.0734 5.70315C46.1017 6.47028 45.8272 7.21719 45.3108 7.77876C44.9545 8.16898 44.9778 8.77813 45.3633 9.13916C45.7484 9.50062 46.3496 9.47658 46.7059 9.08636C47.576 8.16168 48.0471 6.92405 48.0153 5.6465C47.9831 4.36896 47.4506 3.15714 46.5352 2.27841C45.6743 1.4718 44.5495 1.0168 43.3774 1.00043C42.2051 0.984547 41.0686 1.40911 40.1865 2.1917C40.1552 2.22776 40.1268 2.2664 40.1014 2.30718C40.0539 2.35998 40.0124 2.41836 39.9781 2.48018C39.9395 2.59694 39.9078 2.71585 39.8832 2.83606C39.8751 2.90646 39.8751 2.97729 39.8832 3.04769C39.8794 3.09577 39.8794 3.14385 39.8832 3.19193L41.468 8.5287H20.6008V6.12473C20.6055 6.07021 20.6055 6.01569 20.6008 5.96117H20.7906C21.3146 5.96117 21.7395 5.5306 21.7395 4.99958C21.7395 4.46856 21.3146 4.03799 20.7906 4.03799H15.2202C14.6962 4.03799 14.2712 4.46856 14.2712 4.99958C14.2712 5.5306 14.6962 5.96117 15.2202 5.96117H18.7313C18.7267 6.01569 18.7267 6.07021 18.7313 6.12473V9.21127L13.5879 17.3174V17.3178C11.3671 16.1897 8.77621 16.0781 6.469 17.0118C4.16191 17.945 2.35923 19.8343 1.51623 22.2022C0.672771 24.5696 0.869763 27.19 2.0568 29.4012C3.24424 31.6124 5.30818 33.2034 7.72806 33.7721C10.1483 34.3409 12.6927 33.8335 14.7194 32.3774C16.7461 30.9217 18.061 28.6569 18.3326 26.1546H20.9994C21.1494 26.8504 21.4866 27.49 21.9742 28.0026C22.4618 28.5156 23.0803 28.8809 23.7607 29.0586V30.155H22.8118C22.2877 30.155 21.8628 30.5851 21.8628 31.1166C21.8628 31.6476 22.2877 32.0782 22.8118 32.0782H26.6076C27.1316 32.0782 27.5565 31.6476 27.5565 31.1166C27.5565 30.5851 27.1316 30.155 26.6076 30.155H25.6586V29.0586C26.7097 28.7804 27.593 28.0592 28.0848 27.0775C28.5766 26.0958 28.6296 24.9478 28.2301 23.9236L42.4644 12.1922L43.9069 17.077V17.0774C41.2392 18.2262 39.3126 20.6468 38.769 23.532C38.2259 26.4172 39.1371 29.387 41.1998 31.4506C43.2622 33.5146 46.2039 34.4011 49.0444 33.8138C51.8845 33.227 54.2488 31.2445 55.3494 28.5273C56.4497 25.8099 56.1408 22.7156 54.5259 20.2765C52.9113 17.8373 50.2027 16.3743 47.3041 16.3752L47.3225 16.4132ZM20.163 10.4901H41.5909L27.0909 22.4237C26.671 22.076 26.1826 21.8235 25.6581 21.6832V20.5872H26.6071C27.1311 20.5872 27.556 20.1566 27.556 19.6256C27.556 19.0942 27.1311 18.664 26.6071 18.664H22.8113C22.2872 18.664 21.8623 19.0942 21.8623 19.6256C21.8623 20.1566 22.2872 20.5872 22.8113 20.5872H23.7602V21.6836V21.6832C22.4944 22.0163 21.4865 22.9864 21.0938 24.2507H18.3321C18.08 21.9458 16.9413 19.8346 15.1628 18.3755L20.163 10.4901ZM16.4053 24.2502H11.4233L14.1185 19.9998C15.364 21.0889 16.1766 22.5991 16.4053 24.2502ZM9.67711 32.1064C7.6123 32.1141 5.65551 31.171 4.35832 29.5427C3.06113 27.915 2.56377 25.7779 3.00647 23.7338C3.44917 21.6899 4.7841 19.9604 6.6345 19.0323C8.48534 18.1042 10.6519 18.0784 12.524 18.9615L8.88954 24.731V24.8078C8.83362 24.9259 8.79845 25.053 8.78532 25.183V25.2504V25.3273C8.776 25.4037 8.776 25.4814 8.78532 25.5578L8.84209 25.6827V25.6832C8.8764 25.7484 8.9175 25.8098 8.96537 25.8656L9.07001 25.9716C9.09627 26.0021 9.12508 26.0313 9.15516 26.0579L9.27843 26.1154H9.32588L9.32631 26.1159C9.43433 26.1627 9.54999 26.1889 9.66775 26.1927H16.396C16.1676 27.8335 15.364 29.3363 14.1321 30.4259C12.9002 31.5154 11.3221 32.1185 9.68684 32.1259L9.67711 32.1064ZM24.6988 27.2984H24.6992C24.1955 27.2984 23.7129 27.0958 23.3571 26.7352C23.0012 26.3742 22.8013 25.8853 22.8013 25.3753C22.8013 24.8653 23.0012 24.3759 23.3571 24.0153C23.7129 23.6547 24.1955 23.4521 24.6992 23.4521C25.2025 23.4521 25.685 23.6547 26.0408 24.0153C26.3971 24.3759 26.5971 24.8653 26.5971 25.3753C26.6022 25.887 26.4056 26.3794 26.051 26.7442C25.6968 27.1087 25.2135 27.3152 24.7085 27.3178L24.6988 27.2984ZM47.312 32.1064H47.3124C45.2269 32.112 43.2548 31.147 41.9623 29.4887C40.6698 27.8308 40.2004 25.663 40.6889 23.6084C41.1773 21.5543 42.5694 19.841 44.4656 18.9614L46.3635 25.4908C46.5126 26.0003 47.0417 26.2909 47.5451 26.1398C48.0479 25.9883 48.3347 25.4521 48.1856 24.9425L46.2877 18.4132C48.1556 18.1277 50.0568 18.6437 51.534 19.8366C53.0117 21.0292 53.9322 22.7919 54.0755 24.7009C54.2183 26.6094 53.5705 28.4927 52.2874 29.8977C51.0042 31.3028 49.2016 32.1029 47.3126 32.1064L47.312 32.1064Z"/>
</mask>
<path d="M47.3225 16.4132C46.7938 16.4158 46.2668 16.4673 45.7475 16.5669L41.7903 3.31676C42.3173 3.00511 42.9291 2.87375 43.5357 2.94114C44.1424 3.00852 44.7113 3.27168 45.1591 3.69195C45.7158 4.21224 46.0446 4.93641 46.0734 5.70315C46.1017 6.47028 45.8272 7.21719 45.3108 7.77876C44.9545 8.16898 44.9778 8.77813 45.3633 9.13916C45.7484 9.50062 46.3496 9.47658 46.7059 9.08636C47.576 8.16168 48.0471 6.92405 48.0153 5.6465C47.9831 4.36896 47.4506 3.15714 46.5352 2.27841C45.6743 1.4718 44.5495 1.0168 43.3774 1.00043C42.2051 0.984547 41.0686 1.40911 40.1865 2.1917C40.1552 2.22776 40.1268 2.2664 40.1014 2.30718C40.0539 2.35998 40.0124 2.41836 39.9781 2.48018C39.9395 2.59694 39.9078 2.71585 39.8832 2.83606C39.8751 2.90646 39.8751 2.97729 39.8832 3.04769C39.8794 3.09577 39.8794 3.14385 39.8832 3.19193L41.468 8.5287H20.6008V6.12473C20.6055 6.07021 20.6055 6.01569 20.6008 5.96117H20.7906C21.3146 5.96117 21.7395 5.5306 21.7395 4.99958C21.7395 4.46856 21.3146 4.03799 20.7906 4.03799H15.2202C14.6962 4.03799 14.2712 4.46856 14.2712 4.99958C14.2712 5.5306 14.6962 5.96117 15.2202 5.96117H18.7313C18.7267 6.01569 18.7267 6.07021 18.7313 6.12473V9.21127L13.5879 17.3174V17.3178C11.3671 16.1897 8.77621 16.0781 6.469 17.0118C4.16191 17.945 2.35923 19.8343 1.51623 22.2022C0.672771 24.5696 0.869763 27.19 2.0568 29.4012C3.24424 31.6124 5.30818 33.2034 7.72806 33.7721C10.1483 34.3409 12.6927 33.8335 14.7194 32.3774C16.7461 30.9217 18.061 28.6569 18.3326 26.1546H20.9994C21.1494 26.8504 21.4866 27.49 21.9742 28.0026C22.4618 28.5156 23.0803 28.8809 23.7607 29.0586V30.155H22.8118C22.2877 30.155 21.8628 30.5851 21.8628 31.1166C21.8628 31.6476 22.2877 32.0782 22.8118 32.0782H26.6076C27.1316 32.0782 27.5565 31.6476 27.5565 31.1166C27.5565 30.5851 27.1316 30.155 26.6076 30.155H25.6586V29.0586C26.7097 28.7804 27.593 28.0592 28.0848 27.0775C28.5766 26.0958 28.6296 24.9478 28.2301 23.9236L42.4644 12.1922L43.9069 17.077V17.0774C41.2392 18.2262 39.3126 20.6468 38.769 23.532C38.2259 26.4172 39.1371 29.387 41.1998 31.4506C43.2622 33.5146 46.2039 34.4011 49.0444 33.8138C51.8845 33.227 54.2488 31.2445 55.3494 28.5273C56.4497 25.8099 56.1408 22.7156 54.5259 20.2765C52.9113 17.8373 50.2027 16.3743 47.3041 16.3752L47.3225 16.4132ZM20.163 10.4901H41.5909L27.0909 22.4237C26.671 22.076 26.1826 21.8235 25.6581 21.6832V20.5872H26.6071C27.1311 20.5872 27.556 20.1566 27.556 19.6256C27.556 19.0942 27.1311 18.664 26.6071 18.664H22.8113C22.2872 18.664 21.8623 19.0942 21.8623 19.6256C21.8623 20.1566 22.2872 20.5872 22.8113 20.5872H23.7602V21.6836V21.6832C22.4944 22.0163 21.4865 22.9864 21.0938 24.2507H18.3321C18.08 21.9458 16.9413 19.8346 15.1628 18.3755L20.163 10.4901ZM16.4053 24.2502H11.4233L14.1185 19.9998C15.364 21.0889 16.1766 22.5991 16.4053 24.2502ZM9.67711 32.1064C7.6123 32.1141 5.65551 31.171 4.35832 29.5427C3.06113 27.915 2.56377 25.7779 3.00647 23.7338C3.44917 21.6899 4.7841 19.9604 6.6345 19.0323C8.48534 18.1042 10.6519 18.0784 12.524 18.9615L8.88954 24.731V24.8078C8.83362 24.9259 8.79845 25.053 8.78532 25.183V25.2504V25.3273C8.776 25.4037 8.776 25.4814 8.78532 25.5578L8.84209 25.6827V25.6832C8.8764 25.7484 8.9175 25.8098 8.96537 25.8656L9.07001 25.9716C9.09627 26.0021 9.12508 26.0313 9.15516 26.0579L9.27843 26.1154H9.32588L9.32631 26.1159C9.43433 26.1627 9.54999 26.1889 9.66775 26.1927H16.396C16.1676 27.8335 15.364 29.3363 14.1321 30.4259C12.9002 31.5154 11.3221 32.1185 9.68684 32.1259L9.67711 32.1064ZM24.6988 27.2984H24.6992C24.1955 27.2984 23.7129 27.0958 23.3571 26.7352C23.0012 26.3742 22.8013 25.8853 22.8013 25.3753C22.8013 24.8653 23.0012 24.3759 23.3571 24.0153C23.7129 23.6547 24.1955 23.4521 24.6992 23.4521C25.2025 23.4521 25.685 23.6547 26.0408 24.0153C26.3971 24.3759 26.5971 24.8653 26.5971 25.3753C26.6022 25.887 26.4056 26.3794 26.051 26.7442C25.6968 27.1087 25.2135 27.3152 24.7085 27.3178L24.6988 27.2984ZM47.312 32.1064H47.3124C45.2269 32.112 43.2548 31.147 41.9623 29.4887C40.6698 27.8308 40.2004 25.663 40.6889 23.6084C41.1773 21.5543 42.5694 19.841 44.4656 18.9614L46.3635 25.4908C46.5126 26.0003 47.0417 26.2909 47.5451 26.1398C48.0479 25.9883 48.3347 25.4521 48.1856 24.9425L46.2877 18.4132C48.1556 18.1277 50.0568 18.6437 51.534 19.8366C53.0117 21.0292 53.9322 22.7919 54.0755 24.7009C54.2183 26.6094 53.5705 28.4927 52.2874 29.8977C51.0042 31.3028 49.2016 32.1029 47.3126 32.1064L47.312 32.1064Z" fill="#fff"/>
<path d="M47.3225 16.4132C46.7938 16.4158 46.2668 16.4673 45.7475 16.5669L41.7903 3.31676C42.3173 3.00511 42.9291 2.87375 43.5357 2.94114C44.1424 3.00852 44.7113 3.27168 45.1591 3.69195C45.7158 4.21224 46.0446 4.93641 46.0734 5.70315C46.1017 6.47028 45.8272 7.21719 45.3108 7.77876C44.9545 8.16898 44.9778 8.77813 45.3633 9.13916C45.7484 9.50062 46.3496 9.47658 46.7059 9.08636C47.576 8.16168 48.0471 6.92405 48.0153 5.6465C47.9831 4.36896 47.4506 3.15714 46.5352 2.27841C45.6743 1.4718 44.5495 1.0168 43.3774 1.00043C42.2051 0.984547 41.0686 1.40911 40.1865 2.1917C40.1552 2.22776 40.1268 2.2664 40.1014 2.30718C40.0539 2.35998 40.0124 2.41836 39.9781 2.48018C39.9395 2.59694 39.9078 2.71585 39.8832 2.83606C39.8751 2.90646 39.8751 2.97729 39.8832 3.04769C39.8794 3.09577 39.8794 3.14385 39.8832 3.19193L41.468 8.5287H20.6008V6.12473C20.6055 6.07021 20.6055 6.01569 20.6008 5.96117H20.7906C21.3146 5.96117 21.7395 5.5306 21.7395 4.99958C21.7395 4.46856 21.3146 4.03799 20.7906 4.03799H15.2202C14.6962 4.03799 14.2712 4.46856 14.2712 4.99958C14.2712 5.5306 14.6962 5.96117 15.2202 5.96117H18.7313C18.7267 6.01569 18.7267 6.07021 18.7313 6.12473V9.21127L13.5879 17.3174V17.3178C11.3671 16.1897 8.77621 16.0781 6.469 17.0118C4.16191 17.945 2.35923 19.8343 1.51623 22.2022C0.672771 24.5696 0.869763 27.19 2.0568 29.4012C3.24424 31.6124 5.30818 33.2034 7.72806 33.7721C10.1483 34.3409 12.6927 33.8335 14.7194 32.3774C16.7461 30.9217 18.061 28.6569 18.3326 26.1546H20.9994C21.1494 26.8504 21.4866 27.49 21.9742 28.0026C22.4618 28.5156 23.0803 28.8809 23.7607 29.0586V30.155H22.8118C22.2877 30.155 21.8628 30.5851 21.8628 31.1166C21.8628 31.6476 22.2877 32.0782 22.8118 32.0782H26.6076C27.1316 32.0782 27.5565 31.6476 27.5565 31.1166C27.5565 30.5851 27.1316 30.155 26.6076 30.155H25.6586V29.0586C26.7097 28.7804 27.593 28.0592 28.0848 27.0775C28.5766 26.0958 28.6296 24.9478 28.2301 23.9236L42.4644 12.1922L43.9069 17.077V17.0774C41.2392 18.2262 39.3126 20.6468 38.769 23.532C38.2259 26.4172 39.1371 29.387 41.1998 31.4506C43.2622 33.5146 46.2039 34.4011 49.0444 33.8138C51.8845 33.227 54.2488 31.2445 55.3494 28.5273C56.4497 25.8099 56.1408 22.7156 54.5259 20.2765C52.9113 17.8373 50.2027 16.3743 47.3041 16.3752L47.3225 16.4132ZM20.163 10.4901H41.5909L27.0909 22.4237C26.671 22.076 26.1826 21.8235 25.6581 21.6832V20.5872H26.6071C27.1311 20.5872 27.556 20.1566 27.556 19.6256C27.556 19.0942 27.1311 18.664 26.6071 18.664H22.8113C22.2872 18.664 21.8623 19.0942 21.8623 19.6256C21.8623 20.1566 22.2872 20.5872 22.8113 20.5872H23.7602V21.6836V21.6832C22.4944 22.0163 21.4865 22.9864 21.0938 24.2507H18.3321C18.08 21.9458 16.9413 19.8346 15.1628 18.3755L20.163 10.4901ZM16.4053 24.2502H11.4233L14.1185 19.9998C15.364 21.0889 16.1766 22.5991 16.4053 24.2502ZM9.67711 32.1064C7.6123 32.1141 5.65551 31.171 4.35832 29.5427C3.06113 27.915 2.56377 25.7779 3.00647 23.7338C3.44917 21.6899 4.7841 19.9604 6.6345 19.0323C8.48534 18.1042 10.6519 18.0784 12.524 18.9615L8.88954 24.731V24.8078C8.83362 24.9259 8.79845 25.053 8.78532 25.183V25.2504V25.3273C8.776 25.4037 8.776 25.4814 8.78532 25.5578L8.84209 25.6827V25.6832C8.8764 25.7484 8.9175 25.8098 8.96537 25.8656L9.07001 25.9716C9.09627 26.0021 9.12508 26.0313 9.15516 26.0579L9.27843 26.1154H9.32588L9.32631 26.1159C9.43433 26.1627 9.54999 26.1889 9.66775 26.1927H16.396C16.1676 27.8335 15.364 29.3363 14.1321 30.4259C12.9002 31.5154 11.3221 32.1185 9.68684 32.1259L9.67711 32.1064ZM24.6988 27.2984H24.6992C24.1955 27.2984 23.7129 27.0958 23.3571 26.7352C23.0012 26.3742 22.8013 25.8853 22.8013 25.3753C22.8013 24.8653 23.0012 24.3759 23.3571 24.0153C23.7129 23.6547 24.1955 23.4521 24.6992 23.4521C25.2025 23.4521 25.685 23.6547 26.0408 24.0153C26.3971 24.3759 26.5971 24.8653 26.5971 25.3753C26.6022 25.887 26.4056 26.3794 26.051 26.7442C25.6968 27.1087 25.2135 27.3152 24.7085 27.3178L24.6988 27.2984ZM47.312 32.1064H47.3124C45.2269 32.112 43.2548 31.147 41.9623 29.4887C40.6698 27.8308 40.2004 25.663 40.6889 23.6084C41.1773 21.5543 42.5694 19.841 44.4656 18.9614L46.3635 25.4908C46.5126 26.0003 47.0417 26.2909 47.5451 26.1398C48.0479 25.9883 48.3347 25.4521 48.1856 24.9425L46.2877 18.4132C48.1556 18.1277 50.0568 18.6437 51.534 19.8366C53.0117 21.0292 53.9322 22.7919 54.0755 24.7009C54.2183 26.6094 53.5705 28.4927 52.2874 29.8977C51.0042 31.3028 49.2016 32.1029 47.3126 32.1064L47.312 32.1064Z" stroke="#fff" stroke-width="0.6" mask="url(#path-1-outside-1_11_600)"/>
</svg>
