<svg width="50" height="50" viewBox="0 0 50 50" fill="none" xmlns="http://www.w3.org/2000/svg">
<path d="M41.2511 8.9L33.17 16.95M28.5522 12.35L37.7878 21.55" stroke="white" stroke-width="3.2" stroke-linecap="round" stroke-linejoin="round"/>
<path d="M48.1777 12.7806L38.4737 22.4466C36.5991 24.3137 34.0683 25.3811 31.4175 25.4223L30.626 25.4345C29.233 25.4561 27.9087 26.0412 26.9574 27.0551L8.39965 46.8319C6.97163 48.3536 4.56187 48.394 3.08313 46.9211C1.60454 45.4484 1.64501 43.0484 3.17241 41.6261L23.0247 23.1373C24.0422 22.1896 24.6291 20.8708 24.6508 19.4834L24.6633 18.6947C24.7044 16.0541 25.776 13.5331 27.6508 11.6657L37.3545 2" stroke="white" stroke-width="3.2" stroke-linecap="round" stroke-linejoin="round"/>
</svg>
