<svg width="39" height="34" viewBox="0 0 39 34" fill="none" xmlns="http://www.w3.org/2000/svg">
<path d="M24.917 1.53141L20.9395 5.24372C20.3405 5.80285 19.707 6.53795 19.5 7.25005C19.293 6.53795 18.9536 5.80288 18.3545 5.24374L14.3771 1.53143C12.5465 -0.177113 9.57852 -0.177113 7.74794 1.53143C6.09672 3.07256 6.00152 5.53961 7.32915 7.25L19.5 7.25005L5.4375 7.25002C2.84867 7.25002 0.75 9.20878 0.75 11.625C0.75 12.8174 1.26109 13.8984 2.08996 14.6875H19.4909L19.5 14.6875L19.5091 14.6875H36.91C37.7389 13.8984 38.25 12.8174 38.25 11.625C38.25 9.20878 36.1513 7.25002 33.5625 7.25002L31.5462 7.25003L32.0315 7.25C33.3592 5.53961 33.1974 3.07254 31.5461 1.53141C29.7156 -0.177136 26.7476 -0.177136 24.917 1.53141Z" fill="#0A306B"/>
<path d="M2.58946 17.4623L2.58366 17.2503H18.0938V33.4378H16.6875C12.3193 33.4378 10.1352 33.4378 8.41235 32.74C6.11521 31.8097 4.29015 30.0252 3.33864 27.7791C2.62507 26.0946 2.62507 23.9583 2.62507 19.6878C2.62507 18.7518 2.60569 18.0499 2.58946 17.4623Z" fill="#0A306B"/>
<path d="M30.5877 32.74C28.8648 33.4378 26.6807 33.4378 22.3125 33.4378H20.9062V17.2503H36.3644C36.375 17.8806 36.375 18.6366 36.375 19.6878C36.375 23.9589 36.375 26.0945 35.6614 27.7791C34.7099 30.0252 32.8848 31.8097 30.5877 32.74Z" fill="#0A306B"/>
</svg>
