<svg width="23" height="25" viewBox="0 0 23 25" fill="none" xmlns="http://www.w3.org/2000/svg">
<path fill-rule="evenodd" clip-rule="evenodd" d="M18.976 10.0714C18.976 5.57734 16.5048 2.45816 13.3074 1.52175C13.1916 1.22133 13.0086 0.942043 12.7599 0.707695C11.9101 -0.0930352 10.5859 -0.0930352 9.73609 0.707695C9.48793 0.941528 9.3052 1.2201 9.18939 1.51977C5.98784 2.4521 3.52001 5.56446 3.52001 10.0714C3.52001 12.9875 2.93376 14.6215 1.84851 15.8057C1.66706 16.0037 1.17544 16.4572 0.842425 16.7644C0.684875 16.9098 0.562826 17.0224 0.525921 17.0597L0.208008 17.383V21.1585H6.92913C7.1564 22.3343 7.79259 23.121 8.94307 23.825C10.3583 24.6911 12.1377 24.6911 13.5529 23.825C14.5683 23.2037 15.2491 22.2487 15.5253 21.1585H22.288V17.383L21.9701 17.0597C21.9366 17.0256 21.8196 16.9173 21.6665 16.7757C21.3345 16.4686 20.8332 16.0049 20.649 15.803C19.563 14.6134 18.976 12.9773 18.976 10.0714ZM13.1653 21.1585H9.2372C9.39317 21.4494 9.65903 21.6692 10.0932 21.9349C10.8023 22.3688 11.6937 22.3688 12.4028 21.9349C12.7311 21.7339 12.9877 21.4681 13.1653 21.1585ZM19.0204 17.2982C19.2527 17.5527 19.7506 18.0179 20.08 18.3218V18.9442H2.41601V18.3223C2.74287 18.0219 3.24228 17.5571 3.47417 17.3041C4.94883 15.695 5.728 13.5233 5.728 10.0714C5.728 5.88631 8.30338 3.44228 11.248 3.44228C14.1843 3.44228 16.768 5.89893 16.768 10.0714C16.768 13.5122 17.5474 15.6846 19.0204 17.2982Z" fill="#772D29"/>
</svg>
