<svg width="38" height="33" viewBox="0 0 38 33" fill="none" xmlns="http://www.w3.org/2000/svg">
<path fill-rule="evenodd" clip-rule="evenodd" d="M9.27778 0.822937C4.25736 0.822937 0.1875 4.9897 0.1875 10.1297C0.1875 11.6198 1.02222 12.978 2.33441 13.6228L3.1873 14.042C5.2016 15.0318 5.2016 17.9682 3.1873 18.9581L2.33441 19.3772C1.02222 20.0221 0.1875 21.3802 0.1875 22.8704C0.1875 28.0103 4.25735 32.1771 9.27778 32.1771H28.7222C33.7426 32.1771 37.8125 28.0103 37.8125 22.8704C37.8125 21.3802 36.9778 20.0221 35.6656 19.3772L34.8127 18.9581C32.7984 17.9682 32.7984 15.0318 34.8127 14.042L35.6656 13.6228C36.9778 12.978 37.8125 11.6198 37.8125 10.1297C37.8125 4.9897 33.7426 0.822937 28.7222 0.822937H9.27778ZM24.5776 10.7897C25.0901 11.3144 25.0901 12.1652 24.5776 12.69L14.6781 22.8252C14.1655 23.35 13.3345 23.35 12.8219 22.8252C12.3094 22.3004 12.3094 21.4496 12.8219 20.9248L22.7214 10.7897C23.234 10.2649 24.065 10.2649 24.5776 10.7897ZM13.75 12.9167C12.7835 12.9167 12 12.1145 12 11.125C12 10.1355 12.7835 9.33335 13.75 9.33335C14.7165 9.33335 15.5 10.1355 15.5 11.125C15.5 12.1145 14.7165 12.9167 13.75 12.9167ZM24.25 23.6667C23.2835 23.6667 22.5 22.8645 22.5 21.875C22.5 20.8855 23.2835 20.0834 24.25 20.0834C25.2165 20.0834 26 20.8855 26 21.875C26 22.8645 25.2165 23.6667 24.25 23.6667Z" fill="#0A306B"/>
</svg>
