<svg width="39" height="34" viewBox="0 0 55 44" fill="none" xmlns="http://www.w3.org/2000/svg">
<path fill-rule="evenodd" clip-rule="evenodd" d="M33.1597 6.3611C33.8309 5.82413 34.9191 5.82413 35.5903 6.3611L44.2536 13.2917H50.4166C51.3658 13.2917 52.1353 13.9073 52.1353 14.6667C52.1353 15.4261 51.3658 16.0417 50.4166 16.0417H49.1692C48.6504 17.6112 47.9795 19.4206 47.1988 21.5259L44.8497 27.861C43.9166 30.3787 43.3446 31.922 42.3419 33.1771C40.6158 35.3377 37.9645 36.9209 34.8843 37.6303C33.0952 38.0423 31.083 38.0421 27.8005 38.0418H27.1993C23.9169 38.0421 21.9047 38.0423 20.1155 37.6303C17.0354 36.9209 14.384 35.3377 12.6579 33.1771C11.6553 31.922 11.0833 30.3787 10.1502 27.8611L7.80146 21.527C7.02061 19.4212 6.34951 17.6114 5.83064 16.0417H4.58325C3.63401 16.0417 2.8645 15.4261 2.8645 14.6667C2.8645 13.9073 3.63401 13.2917 4.58325 13.2917H11.3024L19.9656 6.36113C20.6368 5.82416 21.7251 5.82416 22.3963 6.36113C23.0675 6.8981 23.0675 7.7687 22.3963 8.30567L16.1637 13.2917H39.3923L33.1597 8.30565C32.4884 7.76867 32.4884 6.89807 33.1597 6.3611ZM24.6353 22.0001C24.6353 21.2407 23.8658 20.6251 22.9166 20.6251C21.9673 20.6251 21.1978 21.2407 21.1978 22.0001V29.3334C21.1978 30.0928 21.9673 30.7084 22.9166 30.7084C23.8658 30.7084 24.6353 30.0928 24.6353 29.3334V22.0001ZM33.802 22.0001C33.802 21.2407 33.0325 20.6251 32.0833 20.6251C31.134 20.6251 30.3645 21.2407 30.3645 22.0001V29.3334C30.3645 30.0928 31.134 30.7084 32.0833 30.7084C33.0325 30.7084 33.802 30.0928 33.802 29.3334V22.0001Z" fill="#0A306B"/>
</svg>
