<svg width="56" height="29" viewBox="0 0 56 29" fill="none" xmlns="http://www.w3.org/2000/svg">
<path d="M5.83777 23.4915H7.5554C8.11123 26.6155 10.8863 29 14.2249 29C17.5624 29 20.3375 26.6155 20.8933 23.4915H34.101C34.6569 26.6155 37.4315 29 40.7694 29C44.1076 29 46.8831 26.6155 47.439 23.4915H53.7094C54.9726 23.4915 56 22.4824 56 21.2417V15.0521C56 11.8909 53.3809 9.31845 50.1623 9.31845H43.1972C38.9007 5.28819 36.8737 0 30.5909 0H16.5222C13.3273 0 10.3893 1.57625 8.66195 4.21671L5.32822 9.31804L1.16743 9.31844C0.522012 9.31844 0 9.83197 0 10.4651V17.7578C0 20.9194 2.61923 23.4915 5.83777 23.4915ZM14.2249 26.7066C11.7809 26.7066 9.79289 24.7577 9.78435 22.3596C9.78475 22.3544 9.7876 22.35 9.7876 22.3448C9.7876 22.3396 9.78475 22.3352 9.78435 22.33C9.7929 19.9315 11.7812 17.9825 14.2249 17.9825C16.6738 17.9825 18.6659 19.9395 18.6659 22.3447C18.6659 24.7496 16.6739 26.7066 14.2249 26.7066ZM40.7696 26.7066C38.3207 26.7066 36.3286 24.7497 36.3286 22.3447C36.3286 19.9395 38.3206 17.9825 40.7696 17.9825C43.2161 17.9825 45.2069 19.9355 45.211 22.3376C45.211 22.3404 45.2097 22.3424 45.2097 22.3452C45.2097 22.3476 45.211 22.35 45.211 22.3528C45.2069 24.7536 43.216 26.7066 40.7696 26.7066ZM40.0774 9.31824H25.2299V2.29357H30.5912C35.3046 2.29357 36.8495 6.28789 40.0774 9.31824ZM10.6285 5.45672C11.9238 3.47614 14.1264 2.29347 16.5231 2.29347H22.8955V9.31814H8.10324L10.6285 5.45672ZM2.33573 11.6119H50.1629C52.0942 11.6119 53.6657 13.1549 53.6657 15.0523L53.7101 21.1979H47.4396C46.8838 18.0731 44.1091 15.6886 40.7701 15.6886C37.4326 15.6886 34.6575 18.0731 34.1017 21.1979H20.894C20.3381 18.0731 17.5635 15.6886 14.2256 15.6886C10.887 15.6886 8.11187 18.0731 7.55604 21.1979H5.83883C3.9075 21.1979 2.33602 19.6549 2.33602 17.7575L2.33573 11.6119Z" fill="#772D29"/>
</svg>
