<?xml version="1.0" encoding="UTF-8" standalone="no"?>
<svg width="23.999971" height="19.015396" viewBox="0 0 23.999971 19.015396" fill="none" version="1.1" id="svg1180" xmlns="http://www.w3.org/2000/svg">
  <defs
     id="defs1184" />
  <path d="m 4.3055584,12.403418 c 0.4522048,-0.183055 0.849765,-0.366184 1.233583,-0.549092 l 8.3367596,0.455206 m -9.5703426,0.09389 -0.052575,-0.130733 c -8.7e-4,3.69e-4 -0.00174,6.64e-4 -0.0026,9.85e-4 m 0.055178,0.129775 -0.05734,-0.128891 c 7.183e-4,-2.94e-4 0.00144,-5.89e-4 0.00217,-9.03e-4 m 0.055178,0.129775 c -0.1782092,0.06521 -0.2467506,0.248348 -0.1782092,0.41836 0.082083,0.156893 0.2740034,0.235377 0.4385012,0.156893 0.3329507,-0.136038 0.6328551,-0.27215 0.9135481,-0.399567 0.1236804,-0.05615 0.243622,-0.110615 0.3610222,-0.162568 L 14.894566,13.87516 M 4.2503807,12.273643 c 0.447346,-0.181139 0.8412138,-0.362573 1.2231701,-0.544596 l 0.00291,-0.0013 h 1.55e-5 c 0.029593,-0.01334 0.059055,-0.0266 0.088394,-0.03987 0.6998979,-0.315557 1.3304271,-0.599867 2.0196421,-0.73399 0.724733,-0.140976 1.507632,-0.115404 2.5086776,0.191898 h 1.54e-4 l 3.782562,1.163772 m -9.6255209,-0.0359 c -0.2634282,0.09801 -0.3527414,0.368395 -0.2600216,0.598394 l 0.00253,0.0062 0.00314,0.006 c 0.1112127,0.212607 0.3830455,0.337223 0.6312483,0.221671 0.3342407,-0.136701 0.6374589,-0.274288 0.9182524,-0.401778 0.122962,-0.05578 0.2416213,-0.109657 0.3567042,-0.160653 l 1.54e-5,7.4e-5 0.00281,-0.0013 c 0.7166991,-0.335307 1.2747556,-0.594119 1.8643136,-0.707534 0.582444,-0.112088 1.204051,-0.08305 2.041102,0.178781 v 7.3e-5 l 0.0011,2.96e-4 3.7811706,1.150286 c 0.216987,0.07119 0.303272,0.186518 0.341278,0.288289 0.0397,0.106414 0.03206,0.212238 0.0255,0.276868 -0.05014,0.226756 -0.231356,0.443195 -0.48519,0.443195 h -0.02742 -4.63e-4 c -0.0079,0 -0.02812,-7.4e-5 -0.05168,0.0025 -0.01383,0.0015 -0.03399,0.0043 -0.05616,0.01061 h -0.0013 c -1.299142,0 -2.784064,-0.370237 -4.7466056,-1.280355 v 0 l -0.0034,-0.0015 c -0.207485,-0.09005 -0.523736,-0.02888 -0.632731,0.225577 -0.115639,0.21349 -0.01615,0.493306 0.223244,0.591466 2.7150826,1.268344 4.6789376,1.576383 6.4561626,1.277113 1.763939,-0.297133 3.326107,-1.191259 5.231486,-2.281927 l 0.01646,-0.0094 0.0014,-9.03e-4 c 0.534473,-0.313862 1.067478,-0.626544 1.654712,-0.952419 0.260014,-0.141639 0.502029,-0.16839 0.712064,-0.09455 l 0.002,6.63e-4 c 0.202774,0.06817 0.391953,0.204205 0.509754,0.406642 v 0 l 0.0019,0.003 c 0.120814,0.195952 0.166004,0.434499 0.120274,0.630819 l -3.09e-4,0.0016 c -0.04473,0.202364 -0.19165,0.394041 -0.449965,0.53487 l -9.03e-4,4.42e-4 c -4.291774,2.376919 -7.038839,3.444447 -8.977819,3.871354 -1.920133,0.422708 -3.052731,0.218797 -4.1298636,0.02484 l -0.0163,-0.003 c -0.665252,-0.130806 -1.323012,-0.251295 -2.114649,-0.236262 -0.7919839,0.01503 -1.7110397,0.165442 -2.9065321,0.567221 -0.2819058,0.07951 -0.3739226,0.349751 -0.3017043,0.564863 0.054374,0.198605 0.2167401,0.29588 0.372285,0.318136 l 0.00506,0.0054 h 0.065559 0.082253 0.02536 l 0.023893,-0.0081 c 1.0843878,-0.368469 1.9115195,-0.502149 2.6159364,-0.514972 0.705159,-0.01275 1.294245,0.09529 1.909673,0.219313 v 0 l 0.0035,6.63e-4 0.02851,0.005 c 1.1430266,0.20251 2.3793666,0.421455 4.4268026,-0.01916 2.056242,-0.442531 4.925279,-1.548821 9.350614,-3.990296 0.484494,-0.266182 0.800667,-0.664055 0.906186,-1.150875 0.104284,-0.44209 0.01398,-0.895527 -0.235294,-1.288905 C 23.34177,11.20441 22.96967,10.92172 22.540949,10.780744 v 0 l -0.0015,-5.15e-4 c -0.495309,-0.157558 -1.018504,-0.09823 -1.503848,0.168464 l -5.4e-4,2.95e-4 c -0.590864,0.327789 -1.126804,0.64224 -1.660891,0.955955 -1.724697,0.989486 -3.082394,1.765039 -4.505364,2.097545 0.01159,-0.04385 0.02032,-0.08696 0.0258,-0.127269 M 13.875852,12.30954 c 0.847092,0.25977 1.123174,0.960672 1.018659,1.565624 m -1.018659,-1.565624 1.018659,1.565624 M 21.464767,11.632 c -0.589318,0.326906 -1.123946,0.640619 -1.658419,0.954481 z" fill="#772d29" stroke="#772d29" stroke-width="0.311914" id="path1168" />
  <path d="m 4.9175798,17.873411 h 6.19e-5 v -0.0039 -5.164975 c 0,-0.523225 -0.4647808,-0.963767 -1.0239498,-0.963767 h -2.713793 c -0.55611,0 -1.0239419,0.411506 -1.0239419,0.963767 v 5.177724 c 0,0.533469 0.4480335,0.976885 1.0239419,0.976885 h 2.5670235 v 2.94e-4 h 0.1467695 c 0.5657428,0 1.0081604,-0.446069 1.0238879,-0.986023 z M 1.1210443,12.704457 c 0,-0.02734 0.03025,-0.05615 0.058855,-0.05615 h 2.713793 c 0.048535,0 0.072566,0.03464 0.072566,0.05615 v 5.164974 c 0,0.02152 -0.024031,0.05615 -0.072566,0.05615 H 1.1798989 c -0.028605,0 -0.058855,-0.02888 -0.058855,-0.05615 z" fill="#772d29" stroke="#772d29" stroke-width="0.311914" id="path1170" />
  <path d="m 9.3064234,7.9442088 -0.425554,1.184258 -4.64e-4,0.0011 c -0.06141,0.175907 0.0028,0.36051 0.131475,0.483358 l 0.0057,0.0054 0.0063,0.0048 c 0.07231,0.05513 0.156039,0.08954 0.242556,0.102876 l 0.0046,0.0063 h 0.07771 1.54e-4 c 0.03299,0 0.110387,0 0.205169,-0.03618 l 0.006,-0.0023 0.0059,-0.0028 3.5596256,-1.723918 h 4.953629 c 0.86231,0 1.558461,-0.664129 1.558461,-1.486735 V 1.6296112 c 0,-0.8243826 -0.698006,-1.4736542 -1.558461,-1.4736542 H 8.6632584 c -0.860378,0 -1.558407,0.6492716 -1.558407,1.4736542 v 4.8377736 c 0,0.822644 0.696175,1.486698 1.558407,1.486772 l 0.0024,-7.4e-5 z M 8.0564104,1.629648 c 0,-0.3088506 0.254297,-0.5590335 0.592717,-0.5658944 h 0.01413 9.4022146 c 0.328301,0 0.593336,0.2624382 0.593336,0.5660344 v 4.8509278 c 0,0.324592 -0.273301,0.56605 -0.593336,0.56605 h -5.084871 c -0.04874,0 -0.09579,0.01106 -0.129466,0.02108 -0.03499,0.01047 -0.06628,0.02307 -0.08698,0.03294 l -4.63e-4,2.21e-4 -2.606242,1.254784 0.261559,-0.703849 3.09e-4,7.4e-5 0.0025,-0.0084 c 0.03901,-0.130144 0.01839,-0.273551 -0.05477,-0.395662 l 3.09e-4,-1.47e-4 -0.0057,-0.008 c -0.08363,-0.119747 -0.226765,-0.193146 -0.3962446,-0.193146 h -1.302001 c -0.331777,0 -0.607008,-0.265791 -0.607008,-0.566042 z" fill="#772d29" stroke="#772d29" stroke-width="0.311914" id="path1172" />
  <path d="m 10.157301,4.4238943 h 0.397513 c 0.272991,0 0.489515,-0.2065489 0.489515,-0.4669679 0,-0.2604116 -0.216524,-0.4669605 -0.489515,-0.4669605 h -0.397513 c -0.2729916,0 -0.4895156,0.2065489 -0.4895156,0.4669605 0,0.260419 0.216524,0.4669679 0.4895156,0.4669679 z" fill="#772d29" stroke="#772d29" stroke-width="0.311914" id="path1174" />
  <path d="m 13.172411,4.4238943 h 0.397514 c 0.272992,0 0.489516,-0.2065489 0.489516,-0.4669679 0,-0.2604116 -0.216524,-0.4669605 -0.489516,-0.4669605 h -0.397514 c -0.272991,0 -0.489515,0.2065489 -0.489515,0.4669605 0,0.260419 0.216524,0.4669679 0.489515,0.4669679 z" fill="#772d29" stroke="#772d29" stroke-width="0.311914" id="path1176" />
  <path d="m 16.174159,4.4238943 h 0.39759 c 0.272915,0 0.489438,-0.2065489 0.489438,-0.4669679 0,-0.2604116 -0.216523,-0.4669605 -0.489438,-0.4669605 h -0.39759 c -0.272992,0 -0.489438,0.2065489 -0.489438,0.4669605 0,0.260419 0.216446,0.4669679 0.489438,0.4669679 z" fill="#772d29" stroke="#772d29" stroke-width="0.311914" id="path1178" />
</svg>
