<svg width="41" height="41" viewBox="0 0 41 41" fill="none" xmlns="http://www.w3.org/2000/svg">
<path d="M32.9292 18.1229C32.5727 18.4611 32.0961 18.65 31.6001 18.65C31.1042 18.65 30.6276 18.4611 30.2711 18.1229C27.0059 15.0086 22.6302 11.5295 24.7642 6.47857C25.9179 3.74755 28.6875 2 31.6001 2C34.5128 2 37.2822 3.74755 38.4361 6.47857C40.5673 11.5232 36.2024 15.0193 32.9292 18.1229Z" stroke="#772D29" stroke-width="3"/>
<path d="M31.6 9.39996H31.6166" stroke="#772D29" stroke-width="3" stroke-linecap="round" stroke-linejoin="round"/>
<path d="M7.55 38.9999C10.6152 38.9999 13.1 36.5151 13.1 33.4499C13.1 30.3847 10.6152 27.8999 7.55 27.8999C4.48482 27.8999 2 30.3847 2 33.4499C2 36.5151 4.48482 38.9999 7.55 38.9999Z" stroke="#772D29" stroke-width="3" stroke-linecap="round" stroke-linejoin="round"/>
<path d="M18.65 11.2499H15.875C12.2989 11.2499 9.39996 13.7348 9.39996 16.7999C9.39996 19.8652 12.2989 22.3499 15.875 22.3499H21.425C25.001 22.3499 27.9 24.8347 27.9 27.8999C27.9 30.9652 25.001 33.4499 21.425 33.4499H18.65" stroke="#772D29" stroke-width="3" stroke-linecap="round" stroke-linejoin="round"/>
</svg>
