<?xml version="1.0" encoding="UTF-8" standalone="no"?>
<svg width="24" height="21.446817" viewBox="0 0 24 21.446817" fill="none" version="1.1" id="svg834" xmlns="http://www.w3.org/2000/svg">
  <defs id="defs838" />
  <path d="M 4.9060429,0.87312957 V 1.5760035 H 0.78598097 c -0.4433259,0 -0.785937499398,0.4007819 -0.785937499398,0.8730866 v 3.1522438 c 0,3.083699 2.225396029398,5.6013921 4.991292829398,5.6013921 h 0.8859625 c 1.1047366,2.114291 3.0559892,3.609349 5.3368322,3.891646 v 4.606196 H 7.794739 c -0.44302,0 -0.785981,0.400764 -0.785981,0.873104 0,0.472763 0.342986,0.873102 0.785981,0.873102 h 8.410522 c 0.442977,0 0.785955,-0.400339 0.785955,-0.873102 0,-0.47234 -0.342978,-0.873104 -0.785955,-0.873104 H 12.78587 v -4.606196 c 2.280927,-0.282297 4.232069,-1.777355 5.336831,-3.891646 h 0.885955 c 2.765947,0 4.991301,-2.5176931 4.991301,-5.6013921 V 2.4490901 c 0,-0.4723047 -0.342638,-0.8730866 -0.785955,-0.8730866 H 19.093846 V 0.87312957 c 0,-0.472696 -0.342637,-0.873086099398 -0.785954,-0.873086099398 H 5.6919891 C 5.2486799,4.3470602e-5 4.9060429,0.40043357 4.9060429,0.87312957 Z M 1.5717571,5.6013851 V 3.3221929 h 3.3342858 v 3.8551693 c 0,0.7916737 0.1028161,1.5566917 0.2944582,2.2788177 H 4.991149 c -1.8792786,0 -3.4193919,-1.716113 -3.4193919,-3.8547948 z M 19.093932,7.1773622 V 3.3221929 h 3.334285 v 2.2791922 c 0,2.1386818 -1.540079,3.8547948 -3.419391,3.8547948 h -0.209361 c 0.191658,-0.722126 0.294467,-1.487144 0.294467,-2.2788177 z m -12.615912,0 V 1.7462157 h 11.043747 v 5.4311465 c 0,3.4443448 -2.481353,6.2190588 -5.521852,6.2190588 -3.0405,0 -5.521895,-2.774714 -5.521895,-6.2190588 z" fill="#772d29" stroke="#772d29" stroke-width="8.69412e-05" id="path832" />
</svg>
