<?xml version="1.0" encoding="UTF-8" standalone="no"?>
<svg
   width="29.999966"
   height="38.82391"
   viewBox="0 0 29.999966 38.82391"
   fill="none"
   version="1.1"
   id="svg3110"
   sodipodi:docname="icon-medal.svg"
   inkscape:version="1.1.2 (b8e25be833, 2022-02-05)"
   xmlns:inkscape="http://www.inkscape.org/namespaces/inkscape"
   xmlns:sodipodi="http://sodipodi.sourceforge.net/DTD/sodipodi-0.dtd"
   xmlns="http://www.w3.org/2000/svg"
   xmlns:svg="http://www.w3.org/2000/svg">
  <defs
     id="defs3114">
    <linearGradient
       id="linearGradient18581"
       inkscape:swatch="solid">
      <stop
         style="stop-color:#fff7e1;stop-opacity:1;"
         offset="0"
         id="stop18579" />
    </linearGradient>
  </defs>
  <path d="m 25.183227,13.633207 v -9.5e-5 c 0,-2.583853 -1.087621,-5.0608815 -3.021817,-6.886155 -1.934009,-1.8250988 -4.556155,-2.8496174 -7.288853,-2.8496174 -2.732787,0 -5.354934,1.0244353 -7.2888677,2.8496174 -1.9341226,1.8252735 -3.0218652,4.302302 -3.0218652,6.886155 0,2.58376 1.0876588,5.060827 3.0218744,6.886074 1.9339245,1.825151 4.5560715,2.849644 7.2888585,2.849644 h 9.5e-5 c 2.732039,-0.0027 5.352114,-1.027973 7.285654,-2.852559 l -0.06146,-0.06501 0.06146,0.06501 c 1.933443,-1.82487 3.021817,-4.299962 3.024921,-6.883064 z M 8.3311183,7.4675606 v -1.08e-5 C 10.063692,5.8308024 12.415814,4.9099763 14.869832,4.9093167 c 2.453545,-6.393e-4 4.806421,0.9186075 6.540403,2.55405 1.733797,1.6356078 2.707105,3.8529043 2.707388,6.1636293 3.78e-4,2.310916 -0.971899,4.528588 -2.705035,6.164443 -1.733608,1.636044 -4.08573,2.556288 -6.539558,2.55638 -2.451197,-0.0038 -4.799646,-0.924384 -6.5312807,-2.558638 C 6.6102225,18.155115 5.6369505,15.941393 5.6328668,13.632924 l -1.69e-4,-0.09387 h -0.00411 C 5.6532473,11.262005 6.621822,9.0819635 8.3311962,7.4675798 Z" fill="#fff7e1" stroke="#fff7e1" stroke-width="0.378597" id="path3104" />
  <path id="path3106" d="M 14.998125,6.2146698 C 14.643876,6.2140122 14.31689,6.4031514 14.158282,6.7088104 l -1.90625,3.6445306 -4.2519542,0.583985 0.0059,0.09961 -0.0059,-0.002 v -0.09766 l -0.01367,0.002 c -0.3507395,0.0487 -0.646172,0.281169 -0.757812,0.605468 -0.11197,0.3256 -0.018659,0.681669 0.2382812,0.917969 l 3.083985,2.833986 -0.7285162,4 c -0.063,0.3382 0.085,0.678153 0.3750002,0.876953 0.2891,0.1978 0.671728,0.222553 0.986328,0.06445 l 0.46875,-0.232422 1.976563,-0.978516 c -0.0038,-0.01169 -0.0072,-0.02132 -0.01172,-0.03516 -0.02241,-0.06808 -0.01733,-0.121035 0.0039,-0.164062 -0.004,-0.04088 -0.0078,-0.08216 -0.01172,-0.123047 -0.03914,-0.436565 -0.08742,-0.858573 -0.04492,-1.298828 0.01315,-0.136186 0.05291,-0.269822 0.07812,-0.404297 0.135489,-0.722528 0.120661,-0.65054 0.240235,-1.339844 0.129968,-0.737346 0.234852,-1.491789 0.451172,-2.210939 0.04783,-0.158999 0.117587,-0.310855 0.179687,-0.464843 0.24724,-0.613092 0.169085,-0.44364 0.376953,-0.859375 h 0.002 c 0.08472,-0.169449 0.201318,-0.241896 0.302735,-0.244141 0.169028,-0.0037 0.293551,0.190242 0.152344,0.472656 -0.203704,0.407409 -0.124476,0.236365 -0.361329,0.826172 -0.06056,0.150794 -0.131164,0.299397 -0.177734,0.455078 -0.131788,0.440541 -0.189148,0.788768 -0.267578,1.228517 -0.0526,0.294918 -0.10425,0.589741 -0.15625,0.884766 -0.11966,0.689809 -0.104202,0.620125 -0.240234,1.345703 -0.02547,0.135843 -0.06492,0.268673 -0.07813,0.40625 -0.03713,0.386931 0.01632,0.773842 0.05078,1.158203 0.0014,0.01499 0.0024,0.02994 0.0039,0.04492 0.03878,0.0095 0.06805,0.0224 0.08594,0.03711 l 0.792968,-0.392578 3.816407,1.892578 c 0.3149,0.1566 0.695975,0.131394 0.984375,-0.06641 0.2895,-0.1984 0.4369,-0.5372 0.375,-0.875 l -0.728516,-4 3.085938,-2.837892 c 0.257,-0.2367 0.352134,-0.592469 0.240234,-0.917969 h -0.002 c -0.112,-0.324199 -0.406813,-0.557268 -0.757813,-0.605468 -0.462053,0.03021 -0.844586,0.05101 -1.228515,0.07226 l -4.8867,-4.0507605 c -0.0193,-0.085951 -0.03677,-0.1625206 -0.05664,-0.2519531 -0.1593,-0.30664 -0.486497,-0.4958806 -0.841797,-0.4941406 z m 1.78125,4.7089842 c 0.1378,0.2639 0.401978,0.444228 0.705078,0.486328 l 3.96875,0.542969 -2.867187,2.636719 c -0.2215,0.2044 -0.324185,0.501269 -0.271484,0.792969 l 0.679687,3.730469 -3.558594,-1.765625 -0.02148,-0.0098 c -0.2682,-0.1247 -0.58381,-0.121834 -0.849609,0.0098 z" />
  <path d="m 7.9699627,38.460292 7.0299923,-11.086648 7.539259,11.226282 0.01369,0.09491 c 9.2e-5,0 1.83e-4,0 2.76e-4,0 0.204297,-0.03226 0.373316,-0.182147 0.424619,-0.386464 l 9.1e-5,-1.92e-4 1.227255,-4.924041 5.041001,1.083866 2.76e-4,9.8e-5 c 0.201626,0.0427 0.412555,-0.03607 0.534229,-0.206237 0.122688,-0.170824 0.12987,-0.398364 0.01815,-0.576481 l -0.02726,-0.04348 h -10e-4 l -6.090378,-9.602208 c 3.181332,-2.556212 5.03013,-6.385157 5.029855,-10.431086 0,-7.4417794 -6.155698,-13.4863365 -13.71034,-13.4863365 -7.5547221,0 -13.7103652,6.0448928 -13.7103652,13.4863365 -3.408e-4,4.046313 1.8484964,7.875259 5.0298476,10.431086 l -6.11772555,9.645301 h -9e-7 l -2.486e-4,3.83e-4 c -0.111784,0.178118 -0.104533,0.405658 0.01816,0.576482 v 0 c 0.121684,0.170151 0.3325667,0.248942 0.5342012,0.206235 l 2.486e-4,-9.5e-5 5.04103875,-1.083868 1.2272429,4.924041 3.71e-5,9.7e-5 c 0.051318,0.204315 0.2202404,0.35422 0.4243712,0.386463 0.02663,0.0043 0.0543,0.0069 0.081936,0.0069 0.1773637,0 0.3447334,-0.08992 0.4413561,-0.240879 z M 7.7411012,36.877677 6.6852165,32.647105 6.6851697,32.646913 C 6.6158777,32.371578 6.3401783,32.207666 6.0689651,32.265246 l -2.21e-4,9.7e-5 -4.3223168,0.929263 5.4087261,-8.525926 c 2.0108376,1.386167 4.3645766,2.212358 6.8119916,2.391626 z M 23.313478,32.647105 v 0 l -1.055009,4.23038 -6.227084,-9.820439 c 2.447412,-0.178983 4.801521,-1.005078 6.812065,-2.391629 l 5.408788,8.526019 -4.322279,-0.92619 c -0.271445,-0.05836 -0.547585,0.105956 -0.616481,0.381859 z M 2.3320894,13.608616 c 0,-6.8593191 5.6776928,-12.4500318 12.6674036,-12.4500318 6.989647,0 12.667397,5.5904631 12.667397,12.4500318 0,6.859435 -5.676735,12.450934 -12.667397,12.450934 -6.9907146,0 -12.6674036,-5.594091 -12.6674036,-12.450934 z" fill="#FFF7E1" stroke="#fff7e1" stroke-width="0.244549" id="path3108" style="fill:#fff7e1;fill-opacity:1" />
  <g style="fill:none" id="g9269" transform="matrix(45.494223,0,0,45.494223,-545.1404,-498.20432)"><path   fill-rule="evenodd"   clip-rule="evenodd"   d="m 12.310578,11.087432 c 0.002,-1.98e-4 0.0041,-1.98e-4 0.0063,0 0.01286,0.0013 0.02049,0.01113 0.02557,0.01978 0.0052,0.0089 0.01058,0.02159 0.01696,0.03673 l 4.1e-4,9.3e-4 c 0.0041,0.0096 0.0067,0.01583 0.0092,0.02052 0.0024,0.0045 0.0041,0.0064 0.0058,0.0079 5.23e-4,4.29e-4 0.0011,8.24e-4 0.0017,0.0013 0.0019,0.0013 0.0042,0.0023 0.0093,0.0031 0.0052,9.31e-4 0.01203,0.0015 0.02236,0.0024 l 0.001,9e-5 c 0.01637,0.0014 0.03007,0.0025 0.04017,0.0047 0.0098,0.0021 0.02157,0.0063 0.02672,0.01821 8.25e-4,0.0019 0.0014,0.0039 0.0019,0.0059 0.0028,0.01262 -0.0042,0.02293 -0.01091,0.03044 -0.0069,0.0077 -0.01727,0.01673 -0.02969,0.02748 l -7.56e-4,6.81e-4 c -0.0079,0.0068 -0.01299,0.01126 -0.01668,0.0151 -0.0035,0.0036 -0.0049,0.0059 -0.0057,0.008 -2.42e-4,6.29e-4 -4.55e-4,0.0013 -6.29e-4,0.002 -5.76e-4,0.002 -7.57e-4,0.0048 -1.26e-4,0.0098 7.56e-4,0.0053 0.0023,0.01192 0.0046,0.02202 l 2.4e-4,0.001 c 0.0037,0.01599 0.0069,0.02939 0.0079,0.03968 9.31e-4,0.01 6.29e-4,0.02247 -0.0091,0.03104 -0.0016,0.0014 -0.0032,0.0026 -0.005,0.0036 -0.01114,0.0066 -0.02312,0.003 -0.03231,-9.3e-4 -0.0095,-0.0041 -0.02124,-0.01126 -0.03531,-0.01975 l -9.31e-4,-5.23e-4 c -0.0089,-0.0053 -0.01472,-0.0089 -0.01952,-0.0112 -0.0046,-0.0022 -0.0072,-0.0028 -0.0093,-0.0029 -6.81e-4,-3e-5 -0.0014,-3e-5 -0.002,0 -0.0022,9.7e-5 -0.0048,7.56e-4 -0.0093,0.0029 -0.0048,0.0024 -0.01064,0.0058 -0.01952,0.0112 l -9.31e-4,5.23e-4 c -0.01406,0.0085 -0.02584,0.0156 -0.03531,0.01975 -0.0092,0.0041 -0.02118,0.0075 -0.03231,9.3e-4 -0.0018,-10e-4 -0.0035,-0.0024 -0.005,-0.0036 -0.0097,-0.0086 -0.01004,-0.02104 -0.0091,-0.03104 9.31e-4,-0.01029 0.0041,-0.02368 0.0079,-0.03968 l 2.41e-4,-0.001 c 0.0024,-0.0101 0.0039,-0.01675 0.0046,-0.02202 6.81e-4,-0.005 4.6e-4,-0.0077 -1.26e-4,-0.0098 -1.84e-4,-6.81e-4 -3.98e-4,-0.0013 -6.29e-4,-0.002 -7.56e-4,-0.002 -0.0021,-0.0043 -0.0057,-0.008 -0.0036,-0.0039 -0.0088,-0.0083 -0.01668,-0.0151 l -7.56e-4,-6.81e-4 c -0.01242,-0.01075 -0.02283,-0.01975 -0.02969,-0.02748 -0.0067,-0.0075 -0.01372,-0.01781 -0.01091,-0.03044 4.54e-4,-0.002 0.0011,-0.0041 0.0019,-0.0059 0.0052,-0.01186 0.01692,-0.01605 0.02673,-0.01821 0.0101,-0.0022 0.0238,-0.0035 0.04016,-0.0047 l 10e-4,-9e-5 c 0.01034,-9.3e-4 0.01713,-0.0014 0.02236,-0.0024 0.005,-9.3e-4 0.0074,-0.0019 0.0093,-0.0031 5.76e-4,-3.8e-4 0.0012,-7.56e-4 0.0016,-0.0013 0.0017,-0.0014 0.0035,-0.0035 0.0058,-0.0079 0.0025,-0.0047 0.0052,-0.01097 0.0092,-0.02052 l 4.09e-4,-9.3e-4 c 0.0064,-0.01513 0.01172,-0.02781 0.01697,-0.03673 0.0051,-0.0087 0.0127,-0.01855 0.02557,-0.01978 z m 0.0031,0.02798 c -5.76e-4,4.8e-4 -0.002,0.002 -0.0045,0.0061 -0.0042,0.0071 -0.0088,0.01805 -0.01572,0.0344 l -2.42e-4,5.76e-4 c -0.0037,0.0088 -0.0069,0.01633 -0.0101,0.02232 -0.0035,0.0064 -0.0074,0.01196 -0.01311,0.01654 -0.0013,9.3e-4 -0.0024,0.0019 -0.0036,0.0027 -0.0061,0.0041 -0.01268,0.0061 -0.01978,0.0074 -0.0067,0.0013 -0.0148,0.0019 -0.02435,0.0027 l -6.28e-4,5.3e-5 c -0.01769,0.0015 -0.02951,0.0025 -0.03758,0.0042 -0.0046,9.3e-4 -0.0064,0.0019 -0.0071,0.0024 2.73e-4,7.56e-4 0.0013,0.0025 0.0043,0.0061 0.0055,0.0062 0.01444,0.01395 0.02787,0.02558 l 4.7e-4,4.05e-4 c 0.0073,0.0063 0.0134,0.01159 0.01811,0.0165 0.005,0.0052 0.0091,0.0107 0.01168,0.01758 5.23e-4,0.0014 9.3e-4,0.0029 0.0014,0.0043 0.0019,0.0071 0.0019,0.01393 9.31e-4,0.02108 -9.31e-4,0.0068 -0.0027,0.01466 -0.005,0.02399 l -1.41e-4,6.28e-4 c -0.0041,0.01729 -0.0067,0.02886 -0.0075,0.03707 -4.61e-4,0.0047 -1.36e-4,0.0068 6.1e-5,0.0075 7.56e-4,-3.8e-5 0.0028,-3.71e-4 0.0071,-0.0023 0.0075,-0.0033 0.01773,-0.0094 0.03294,-0.0186 l 5.24e-4,-3.21e-4 c 0.0082,-0.005 0.01517,-0.0092 0.02129,-0.01213 0.0065,-0.0031 0.01298,-0.0053 0.02033,-0.0057 0.0015,-6.8e-5 0.003,-6.8e-5 0.0046,0 0.0074,3.24e-4 0.01383,0.0025 0.02033,0.0057 0.0061,0.003 0.01308,0.0072 0.02129,0.01213 l 5.23e-4,3.21e-4 c 0.01521,0.0092 0.02537,0.01528 0.03294,0.0186 0.0042,0.0019 0.0064,0.0022 0.0071,0.0023 1.99e-4,-7.56e-4 5.24e-4,-0.0028 6.2e-5,-0.0075 -7.56e-4,-0.0082 -0.0035,-0.01979 -0.0075,-0.03707 l -1.42e-4,-6.28e-4 c -0.0022,-0.0093 -0.0041,-0.01726 -0.005,-0.02398 -9.31e-4,-0.0072 -0.0011,-0.014 9.3e-4,-0.02108 4.06e-4,-0.0014 9.3e-4,-0.003 0.0014,-0.0043 0.0025,-0.0069 0.0067,-0.01236 0.01168,-0.01758 0.0047,-0.005 0.01086,-0.01023 0.01811,-0.0165 l 4.7e-4,-4.07e-4 c 0.01343,-0.01162 0.02239,-0.01941 0.02787,-0.02558 0.0031,-0.0035 0.0041,-0.0053 0.0043,-0.0061 -6.28e-4,-4.16e-4 -0.0025,-0.0014 -0.0071,-0.0024 -0.008,-0.0018 -0.01989,-0.0028 -0.03758,-0.0042 l -6.29e-4,-5.3e-5 c -0.0095,-8.25e-4 -0.01767,-0.0015 -0.02434,-0.0028 -0.0071,-0.0013 -0.01364,-0.0033 -0.01979,-0.0074 -0.0013,-8.24e-4 -0.0025,-0.0017 -0.0036,-0.0027 -0.0058,-0.0046 -0.0097,-0.01018 -0.01311,-0.01654 -0.0031,-0.006 -0.0064,-0.01348 -0.0101,-0.02232 l -2.42e-4,-5.76e-4 c -0.0069,-0.01636 -0.01154,-0.02729 -0.01572,-0.0344 -0.0024,-0.0041 -0.0039,-0.0056 -0.0045,-0.0061 z"   fill="#000000"   id="path9260"   style="fill:#fff6d5;stroke-width:0.018731" />
  </g>
  <path style="opacity:1;fill:none;fill-opacity:1;stroke:none;stroke-width:0;stroke-linecap:square;stroke-miterlimit:4;stroke-dasharray:none;stroke-opacity:0;paint-order:markers stroke fill" d="M 10.316658,20.557558 C 9.9206568,20.316123 9.6848898,19.818526 9.6848898,19.224184 c 0,-0.233176 0.137788,-1.040223 0.306196,-1.79344 0.1684092,-0.753215 0.3061972,-1.549462 0.3061972,-1.769435 0,-0.453781 -0.08783,-0.557057 -1.7709312,-2.082323 -1.4719017,-1.333873 -1.7248358,-2.061414 -0.976742,-2.809508 0.3936347,-0.393634 0.750012,-0.489826 2.4925092,-0.672764 1.734308,-0.1820786 1.880894,-0.2141146 2.156537,-0.4713096 0.119509,-0.111511 0.460592,-0.762602 0.757961,-1.4468685 0.90991,-2.0937663 1.34681,-2.6220076 2.168621,-2.6220076 0.780903,0 1.082089,0.4079039 2.389451,3.2360911 0.506988,1.096757 0.495202,1.09025 2.274696,1.2557996 2.247139,0.209056 2.789522,0.404368 3.11261,1.120849 0.366704,0.813204 0.05009,1.283318 -2.270568,3.371433 -0.699928,0.629789 -0.739976,0.6895 -0.739976,1.103282 0,0.240601 0.11684,0.95143 0.259644,1.579619 0.494778,2.176508 0.434308,2.899053 -0.279018,3.333956 -0.676282,0.412317 -1.187755,0.248048 -3.601484,-1.156677 -1.057269,-0.615301 -1.295183,-0.615301 -2.352452,0 -2.413728,1.404725 -2.925203,1.568994 -3.601483,1.156677 z m 1.868839,-1.609644 c 1.432259,-0.828208 2.235388,-1.226858 2.611938,-1.29649 0.527921,-0.09762 1.035447,0.07232 2.134113,0.714612 1.359549,0.794805 2.227158,1.225791 2.306962,1.145986 0.068,-0.068 -0.06606,-0.856351 -0.472318,-2.777427 -0.354711,-1.677334 -0.204365,-2.011634 1.656581,-3.683479 0.718222,-0.64524 1.305859,-1.235649 1.305859,-1.31202 0,-0.207021 -0.160746,-0.241861 -1.913468,-0.41473 C 17.310353,11.07732 17.023137,10.878928 16.119466,8.7715954 15.594561,7.5475338 15.194472,6.7813157 15.08022,6.7813157 c -0.104065,0 -0.38457,0.5448542 -1.02103,1.9832517 -0.946929,2.1400576 -1.196433,2.3133206 -3.685619,2.5594176 -1.7453742,0.172558 -1.9134692,0.208603 -1.9134692,0.41031 0,0.07373 0.447813,0.539595 0.99514,1.035253 1.9025062,1.722906 2.0957532,1.994824 2.0911862,2.942509 -0.0014,0.280681 -0.12036,1.02501 -0.26446,1.654065 -0.1441,0.629053 -0.293421,1.3806 -0.331825,1.670102 -0.0689,0.519424 -0.0666,0.525428 0.174502,0.455109 0.13438,-0.03919 0.611763,-0.283731 1.060852,-0.543419 z" id="path14719" />
  <path style="opacity:1;fill:none;fill-opacity:1;stroke:none;stroke-width:0;stroke-linecap:square;stroke-miterlimit:4;stroke-dasharray:none;stroke-opacity:0;paint-order:markers stroke fill" d="m 10.375116,20.502467 c -0.6488062,-0.352038 -0.7278762,-1.065398 -0.332997,-3.004261 0.14034,-0.689073 0.255164,-1.492212 0.255164,-1.784753 V 15.18156 L 8.9830718,13.915824 C 7.5663959,12.551403 7.2362903,12.116128 7.2356962,11.611747 c -4.665e-4,-0.395987 0.416128,-0.923155 0.8840126,-1.118649 0.182911,-0.07643 1.079977,-0.233593 1.9934812,-0.349263 0.913504,-0.115669 1.770295,-0.2650586 1.903979,-0.3319786 0.256742,-0.128519 0.510101,-0.567685 1.342601,-2.3272377 0.281781,-0.5955649 0.674726,-1.2500606 0.873212,-1.454435 0.317812,-0.3272407 0.420267,-0.3715897 0.858447,-0.3715897 0.71264,0 0.981427,0.318047 1.975989,2.3381322 0.650772,1.3218002 0.894901,1.7224652 1.112369,1.8256212 0.153239,0.07269 0.867468,0.1975156 1.587176,0.2773916 0.719707,0.07988 1.55367,0.197797 1.853251,0.262045 0.724032,0.155277 1.223986,0.604758 1.296537,1.165644 0.0742,0.573658 -0.286436,1.07318 -1.796593,2.48846 l -1.228707,1.151511 v 0.53968 c 0,0.296824 0.114824,1.09391 0.255164,1.771303 0.40239,1.94225 0.315884,2.682679 -0.353889,3.029031 -0.630454,0.326021 -1.197273,0.145269 -3.320473,-1.058862 -1.220771,-0.692336 -1.535391,-0.69845 -2.656178,-0.05162 -2.098682,1.2112 -2.819436,1.442768 -3.440959,1.105533 z m 1.979027,-1.579466 c 1.607343,-0.895751 2.336463,-1.220503 2.740224,-1.220503 0.402539,0 1.071892,0.299953 2.70239,1.211005 0.616206,0.344308 1.201808,0.626015 1.301337,0.626015 0.250702,0 0.234181,-0.272393 -0.126898,-2.092345 -0.167061,-0.842041 -0.302916,-1.668773 -0.301899,-1.837181 0.0036,-0.589577 0.372405,-1.113 1.720802,-2.441974 1.257013,-1.238906 1.459976,-1.502516 1.254582,-1.629456 -0.04617,-0.02854 -0.838458,-0.146916 -1.760632,-0.263065 -2.615853,-0.32947 -2.778634,-0.448018 -3.829244,-2.7886816 -0.627995,-1.3991176 -0.806971,-1.7054997 -0.996279,-1.7054997 -0.07326,0 -0.49099,0.7540838 -0.928289,1.6757417 -1.147295,2.4180566 -1.246461,2.4907466 -3.847154,2.8200506 -0.9102932,0.115263 -1.6928562,0.232917 -1.7390292,0.261454 -0.214703,0.132693 0.01399,0.43065 1.337988,1.743195 1.8558162,1.839768 1.8319042,1.75714 1.2714032,4.39333 -0.29487,1.386851 -0.313998,1.864431 -0.07468,1.864431 0.093,0 0.666919,-0.277433 1.275374,-0.616517 z" id="path17963" />
</svg>
