<svg width="47" height="47" viewBox="0 0 47 47" fill="none" xmlns="http://www.w3.org/2000/svg">
<path d="M30.6102 39.5308C30.7779 38.6562 30.2047 37.8112 29.3301 37.6437C28.4555 37.476 27.6105 38.0492 27.4428 38.9238L30.6102 39.5308ZM19.5532 38.9238C19.3855 38.0492 18.5407 37.476 17.666 37.6437C16.7914 37.8112 16.2182 38.6562 16.3857 39.5308L19.5532 38.9238ZM16.4429 35.0689H30.5534V31.8439H16.4429V35.0689ZM27.162 37.6149H19.8342V40.8399H27.162V37.6149ZM19.8342 37.6149C18.7533 37.6149 18.5085 37.6022 18.3201 37.5532L17.5063 40.6737C18.1917 40.8524 18.9363 40.8399 19.8342 40.8399V37.6149ZM13.4528 36.0579C13.7396 36.9592 13.9561 37.6758 14.3211 38.278L17.0791 36.6066C16.9614 36.4122 16.865 36.1454 16.526 35.0801L13.4528 36.0579ZM18.3201 37.5532C17.8248 37.424 17.3747 37.0944 17.0791 36.6066L14.3211 38.278C15.0364 39.4583 16.1713 40.3256 17.5063 40.6737L18.3201 37.5532ZM30.4702 35.0801C30.1312 36.1454 30.0349 36.4122 29.9173 36.6066L32.6753 38.278C33.0401 37.6758 33.2566 36.9592 33.5434 36.0579L30.4702 35.0801ZM27.162 40.8399C28.0599 40.8399 28.8046 40.8524 29.4898 40.6737L28.6761 37.5532C28.4877 37.6022 28.2428 37.6149 27.162 37.6149V40.8399ZM29.9173 36.6066C29.6216 37.0944 29.1714 37.424 28.6761 37.5532L29.4898 40.6737C30.825 40.3256 31.9598 39.4583 32.6753 38.278L29.9173 36.6066ZM30.5534 35.0689C30.69 35.0689 30.7968 35.0689 30.8888 35.07C30.9809 35.071 31.0402 35.073 31.0804 35.0756C31.1733 35.0811 31.0849 35.0863 30.9419 35.0282L32.155 32.0402C31.82 31.9043 31.5018 31.8703 31.2791 31.8566C31.0598 31.843 30.8007 31.8439 30.5534 31.8439V35.0689ZM33.5434 36.0579C33.6224 35.8098 33.7028 35.5591 33.7578 35.3445C33.8137 35.1271 33.8776 34.8257 33.8616 34.4815L30.6401 34.629C30.6343 34.5004 30.6607 34.4396 30.6343 34.5421C30.6227 34.5877 30.6046 34.6509 30.576 34.7442C30.5474 34.8373 30.5132 34.9446 30.4702 35.0801L33.5434 36.0579ZM30.9419 35.0282C30.7349 34.9442 30.6465 34.769 30.6401 34.629L33.8616 34.4815C33.8137 33.4297 33.1747 32.4541 32.155 32.0402L30.9419 35.0282ZM16.4429 31.8439C16.1957 31.8439 15.9364 31.843 15.7172 31.8566C15.4944 31.8703 15.1762 31.9043 14.8412 32.0402L16.0542 35.0282C15.9113 35.0863 15.823 35.0811 15.9159 35.0756C15.9561 35.073 16.0154 35.071 16.1075 35.07C16.1995 35.0689 16.3063 35.0689 16.4429 35.0689V31.8439ZM16.526 35.0801C16.4829 34.9446 16.4488 34.8373 16.4203 34.7442C16.3917 34.6509 16.3737 34.5877 16.362 34.5421C16.3356 34.4396 16.362 34.5004 16.3561 34.629L13.1345 34.4815C13.1188 34.8257 13.1825 35.1271 13.2384 35.3445C13.2935 35.5591 13.3739 35.8098 13.4528 36.0579L16.526 35.0801ZM14.8412 32.0402C13.8216 32.4541 13.1826 33.4297 13.1345 34.4815L16.3561 34.629C16.3497 34.769 16.2615 34.9442 16.0542 35.0282L14.8412 32.0402ZM27.4428 38.9238L27.2046 40.1678L30.372 40.7746L30.6102 39.5308L27.4428 38.9238ZM19.7914 40.1678L19.5532 38.9238L16.3857 39.5308L16.6241 40.7746L19.7914 40.1678ZM23.498 43.386C22.045 43.386 21.712 43.3645 21.4675 43.2802L20.4179 46.3297C21.2977 46.6325 22.2933 46.611 23.498 46.611V43.386ZM16.6241 40.7746C16.8626 42.0198 17.0326 43.0067 17.4737 43.8187L20.3076 42.2791C20.1648 42.0162 20.0741 41.6429 19.7914 40.1678L16.6241 40.7746ZM21.4675 43.2802C20.9915 43.1166 20.5727 42.767 20.3076 42.2791L17.4737 43.8187C18.1116 44.9926 19.1555 45.8952 20.4179 46.3297L21.4675 43.2802ZM27.2046 40.1678C26.9219 41.6429 26.8314 42.0162 26.6886 42.2791L29.5223 43.8187C29.9635 43.0067 30.1333 42.0198 30.372 40.7746L27.2046 40.1678ZM23.498 46.611C24.7026 46.611 25.6985 46.6325 26.5781 46.3297L25.5287 43.2802C25.284 43.3645 24.951 43.386 23.498 43.386V46.611ZM26.6886 42.2791C26.4235 42.767 26.0045 43.1166 25.5287 43.2802L26.5781 46.3297C27.8406 45.8952 28.8844 44.9926 29.5223 43.8187L26.6886 42.2791Z" fill="#772D29"/>
<path d="M10.7921 29.9499C9.97855 28.1211 9.52496 26.0866 9.52496 23.9426C9.52496 15.9799 15.7818 9.5249 23.5 9.5249C31.2183 9.5249 37.475 15.9799 37.475 23.9426C37.475 26.0866 37.0213 28.1211 36.2078 29.9499" stroke="#772D29" stroke-width="3" stroke-linecap="round"/>
<path d="M23.5 2V4.15" stroke="#772D29" stroke-width="3" stroke-linecap="round" stroke-linejoin="round"/>
<path d="M45 23.4999H42.85" stroke="#772D29" stroke-width="3" stroke-linecap="round" stroke-linejoin="round"/>
<path d="M4.15 23.4999H2" stroke="#772D29" stroke-width="3" stroke-linecap="round" stroke-linejoin="round"/>
<path d="M38.7011 8.29663L37.1808 9.81692" stroke="#772D29" stroke-width="3" stroke-linecap="round" stroke-linejoin="round"/>
<path d="M9.81893 9.81887L8.29865 8.29858" stroke="#772D29" stroke-width="3" stroke-linecap="round" stroke-linejoin="round"/>
</svg>
