<svg width="39" height="48" viewBox="0 0 39 48" fill="none" xmlns="http://www.w3.org/2000/svg">
<path d="M35.57 3.93685C35.2496 1.7665 33.2048 0 31.0109 0H7.00536C4.81108 0 2.76511 1.76548 2.4438 3.93634C2.34333 4.60914 0 20.4779 0 24.7659C0 29.1286 1.28562 33.5327 1.34014 33.7176C1.95194 35.7915 4.12483 37.4151 6.28519 37.4151H31.7303C33.8951 37.4151 36.0579 35.7836 36.6533 33.7002C36.7083 33.5058 38.015 28.8857 38.015 24.7044C38.0155 20.5942 35.6702 4.61582 35.5703 3.93634L35.57 3.93685ZM34.5863 33.1094C34.2579 34.2576 32.9238 35.2648 31.7307 35.2648L6.28564 35.2653C5.088 35.2653 3.74088 34.2576 3.40204 33.1089C3.38904 33.0659 2.15043 28.8102 2.15043 24.765C2.15043 20.6332 4.54675 4.41401 4.57017 4.25022C4.73912 3.11107 5.85477 2.14833 7.00591 2.14833H31.0114C32.1616 2.14833 33.2752 3.11053 33.4437 4.24868C33.4682 4.41364 35.8665 20.7506 35.8665 24.7033C35.8655 28.5791 34.5984 33.0658 34.5864 33.1092L34.5863 33.1094Z" fill="#772D29"/>
<path d="M13.695 9.15129H24.3184C25.7524 9.15129 26.9191 7.98464 26.9191 6.55061V5.76285C26.9191 4.32879 25.7524 3.16217 24.3184 3.16217L13.695 3.16317C12.261 3.16317 11.0944 4.32982 11.0944 5.76385V6.55161C11.0954 7.98465 12.262 9.15129 13.695 9.15129ZM13.2452 5.76326C13.2452 5.51883 13.4516 5.3124 13.696 5.3124H24.3194C24.5638 5.3124 24.7702 5.51884 24.7702 5.76326V6.55102C24.7702 6.79545 24.5638 7.00188 24.3194 7.00188L13.6951 7.00138C13.4507 7.00138 13.2443 6.79494 13.2443 6.55052L13.2448 5.76326H13.2452Z" fill="#772D29"/>
<path d="M8.21188 26.6717C6.28044 26.6717 4.70844 28.2432 4.70844 30.1757C4.70844 32.1071 6.27993 33.6791 8.21188 33.6791C10.1438 33.6791 11.7169 32.1076 11.7169 30.1757C11.7169 28.2432 10.1438 26.6717 8.21188 26.6717ZM8.21188 31.5287C7.46611 31.5287 6.85831 30.9209 6.85831 30.1751C6.85831 29.4284 7.46613 28.8205 8.21188 28.8205C8.95915 28.8205 9.56699 29.4284 9.56699 30.1751C9.56699 30.9219 8.95918 31.5287 8.21188 31.5287Z" fill="#772D29"/>
<path d="M29.8028 26.6717C27.8708 26.6717 26.2988 28.2432 26.2988 30.1757C26.2988 32.1071 27.8703 33.6791 29.8028 33.6791C31.7353 33.6791 33.3067 32.1076 33.3067 30.1757C33.3067 28.2432 31.7347 26.6717 29.8028 26.6717ZM29.8028 31.5287C29.056 31.5287 28.4482 30.9209 28.4482 30.1751C28.4482 29.4284 29.056 28.8205 29.8028 28.8205C30.5496 28.8205 31.1574 29.4284 31.1574 30.1751C31.1569 30.9219 30.5496 31.5287 29.8028 31.5287Z" fill="#772D29"/>
<path d="M32.5233 14.1584C32.2903 11.955 30.2984 10.1622 28.0821 10.1622H9.93338C7.7176 10.1622 5.72563 11.9541 5.49466 14.134L4.58593 21.1973C4.46747 22.3114 4.80087 23.3676 5.52464 24.1719C6.24841 24.9766 7.26466 25.42 8.38432 25.42H29.631C30.7511 25.42 31.7673 24.9766 32.4907 24.1719C33.2144 23.3681 33.5478 22.3109 33.4264 21.1727L32.5233 14.1584ZM30.8923 22.7353C30.5814 23.0806 30.1335 23.2711 29.6301 23.2711H8.38347C7.88062 23.2711 7.43276 23.0806 7.12136 22.7353C6.81045 22.3904 6.66899 21.925 6.71848 21.4481L7.62721 14.3848C7.74667 13.2611 8.80235 12.3119 9.93153 12.3119H28.0803C29.2104 12.3119 30.2651 13.2616 30.387 14.4088L31.2907 21.4247C31.3432 21.9245 31.2023 22.3899 30.8919 22.7353H30.8923Z" fill="#772D29"/>
<path d="M28.9941 40.0591C28.5992 39.6177 27.9194 39.5777 27.4766 39.9746C27.0342 40.37 26.9957 41.0502 27.3921 41.4921L28.1959 42.3908H9.81936L10.6226 41.4921C11.018 41.0497 10.98 40.3699 10.5381 39.9746C10.0958 39.5792 9.41548 39.6172 9.02065 40.0591L4.20956 45.4405C3.81419 45.8828 3.85217 46.5621 4.29404 46.9574C4.49898 47.1409 4.7554 47.2319 5.00983 47.2319C5.30524 47.2319 5.59965 47.1099 5.81158 46.8735L7.91501 44.5217C7.97649 44.5332 8.04047 44.5402 8.10545 44.5402H30.1186L32.203 46.8725C32.4149 47.1099 32.7088 47.2314 33.0047 47.2314C33.2591 47.2314 33.5156 47.1404 33.7205 46.957C34.1629 46.5621 34.2014 45.8823 33.805 45.44L28.9941 40.0591Z" fill="#772D29"/>
</svg>
