<svg width="159" height="30" viewBox="0 0 159 30" fill="none" xmlns="http://www.w3.org/2000/svg">
<path d="M17.1591 7.67045C16.9886 6.23106 16.2973 5.11364 15.0852 4.31818C13.8731 3.52273 12.3864 3.125 10.625 3.125C9.33712 3.125 8.21023 3.33333 7.24432 3.75C6.28788 4.16667 5.53977 4.73958 5 5.46875C4.4697 6.19792 4.20455 7.02652 4.20455 7.95455C4.20455 8.73106 4.3892 9.39867 4.75852 9.95739C5.13731 10.5066 5.62027 10.9659 6.20739 11.3352C6.79451 11.6951 7.41004 11.9934 8.05398 12.2301C8.69792 12.4574 9.28977 12.642 9.82955 12.7841L12.7841 13.5795C13.5417 13.7784 14.3845 14.053 15.3125 14.4034C16.25 14.7538 17.1449 15.232 17.9972 15.8381C18.8589 16.4347 19.5691 17.2017 20.1278 18.1392C20.6866 19.0767 20.9659 20.2273 20.9659 21.5909C20.9659 23.1629 20.554 24.5833 19.7301 25.8523C18.9157 27.1212 17.7225 28.1297 16.1506 28.8778C14.5881 29.6259 12.6894 30 10.4545 30C8.37121 30 6.56723 29.6638 5.04261 28.9915C3.52746 28.3191 2.33428 27.3816 1.46307 26.179C0.601326 24.9763 0.113636 23.5795 0 21.9886H3.63636C3.73106 23.0871 4.10038 23.9962 4.74432 24.7159C5.39773 25.4261 6.22159 25.9564 7.21591 26.3068C8.2197 26.6477 9.29924 26.8182 10.4545 26.8182C11.7992 26.8182 13.0066 26.6004 14.0767 26.1648C15.1468 25.7197 15.9943 25.1042 16.6193 24.3182C17.2443 23.5227 17.5568 22.5947 17.5568 21.5341C17.5568 20.5682 17.2869 19.7822 16.7472 19.1761C16.2074 18.5701 15.4972 18.0777 14.6165 17.6989C13.7358 17.3201 12.7841 16.9886 11.7614 16.7045L8.18182 15.6818C5.90909 15.0284 4.10985 14.0956 2.78409 12.8835C1.45833 11.6714 0.795455 10.0852 0.795455 8.125C0.795455 6.49621 1.2358 5.07576 2.11648 3.86364C3.00663 2.64205 4.19981 1.69508 5.69602 1.02273C7.2017 0.340909 8.88258 0 10.7386 0C12.6136 0 14.2803 0.336174 15.7386 1.00852C17.197 1.6714 18.3523 2.58049 19.2045 3.7358C20.0663 4.8911 20.5208 6.20265 20.5682 7.67045H17.1591Z" fill="#EA9CC9"/>
<path d="M45.8487 0.397727H49.3714V19.6591C49.3714 21.6477 48.9027 23.4233 47.9652 24.9858C47.0372 26.5388 45.7256 27.7652 44.0305 28.6648C42.3355 29.5549 40.3468 30 38.0646 30C35.7824 30 33.7938 29.5549 32.0987 28.6648C30.4036 27.7652 29.0874 26.5388 28.1499 24.9858C27.2218 23.4233 26.7578 21.6477 26.7578 19.6591V0.397727H30.2805V19.375C30.2805 20.7955 30.593 22.0597 31.218 23.1676C31.843 24.2661 32.7332 25.1326 33.8885 25.767C35.0533 26.392 36.4453 26.7045 38.0646 26.7045C39.684 26.7045 41.076 26.392 42.2408 25.767C43.4055 25.1326 44.2957 24.2661 44.9112 23.1676C45.5362 22.0597 45.8487 20.7955 45.8487 19.375V0.397727Z" fill="#EA9CC9"/>
<path d="M56.4062 0.397727H60.6108L70.4972 24.5455H70.8381L80.7244 0.397727H84.929V29.4886H81.6335V7.38636H81.3494L72.2585 29.4886H69.0767L59.9858 7.38636H59.7017V29.4886H56.4062V0.397727Z" fill="#EA9CC9"/>
<path d="M91.9922 0.397727H96.1967L106.083 24.5455H106.424L116.31 0.397727H120.515V29.4886H117.219V7.38636H116.935L107.844 29.4886H104.663L95.5717 7.38636H95.2876V29.4886H91.9922V0.397727Z" fill="#EA9CC9"/>
<path d="M131.101 0.397727V29.4886H127.578V0.397727H131.101Z" fill="#EA9CC9"/>
<path d="M136.573 3.52273V0.397727H158.391V3.52273H149.244V29.4886H145.721V3.52273H136.573Z" fill="#EA9CC9"/>
</svg>
