<svg width="151" height="99" viewBox="0 0 151 99" fill="none" xmlns="http://www.w3.org/2000/svg">
<rect x="52" y="23.3345" width="33" height="33" rx="4" transform="rotate(-45 52 23.3345)" fill="#F9D8A7"/>
<rect x="78" y="48.3345" width="33" height="33" rx="4" transform="rotate(-45 78 48.3345)" fill="#F9D8A7"/>
<rect x="26" y="49.3345" width="33" height="33" rx="4" transform="rotate(-45 26 49.3345)" fill="#F9D8A7"/>
<path d="M0.848527 76.183C0.379898 75.7144 0.379899 74.9546 0.848528 74.4859L20.5061 54.8284C22.0682 53.2663 24.6009 53.2663 26.163 54.8284L45.8205 74.4859C46.2891 74.9546 46.2891 75.7144 45.8205 76.183V76.183C33.4018 88.6017 13.2672 88.6017 0.848527 76.183V76.183Z" fill="#F9D8A7"/>
<path d="M52.8485 76.183C52.3799 75.7144 52.3799 74.9546 52.8485 74.4859L72.5061 54.8284C74.0682 53.2663 76.6009 53.2663 78.163 54.8284L97.8205 74.4859C98.2891 74.9546 98.2891 75.7144 97.8205 76.183C85.4018 88.6017 65.2672 88.6017 52.8485 76.183Z" fill="#F9D8A7"/>
<path d="M104.849 76.183C104.38 75.7144 104.38 74.9546 104.849 74.4859L124.506 54.8284C126.068 53.2663 128.601 53.2663 130.163 54.8284L149.821 74.4859C150.289 74.9546 150.289 75.7144 149.821 76.183C137.402 88.6017 117.267 88.6017 104.849 76.183Z" fill="#F9D8A7"/>
</svg>
